<svg id="Layer_1" data-name="Layer 1" xmlns="http://www.w3.org/2000/svg" viewBox="0 0 300 300"><defs><style>.cls-1{fill:#282828;}.cls-2{fill:#b6daf4;}</style></defs><rect class="cls-1" width="300" height="300" rx="61.73"/><path class="cls-2" d="M88.23,58H161.4C192.76,58,215,77.61,215,105.83c0,16.72-7.84,30.31-20.38,36.58v.53c16.72,6.53,27.18,22.47,27.18,43.11,0,36.33-22.74,54.88-65.86,54.88H88.23Zm68.73,76c20.64,0,31.1-8.62,31.1-25.87,0-16.72-10.46-25.35-31.1-25.35H115.15v51.22Zm-1.05,82.06c27.18,0,38.94-9.15,38.94-30.32,0-20.12-11.5-29-38.41-29H115.15v59.32Z"/></svg>